<?xml version="1.0" encoding="UTF-8"?>
<svg version="1.1" xmlns="http://www.w3.org/2000/svg" width="512" height="512">
<path d="M0 0 C8.74100634 6.75861905 16.90574286 15.1111479 22 25 C22 25.66 22 26.32 22 27 C22.64324219 26.55269531 23.28648437 26.10539062 23.94921875 25.64453125 C36.8559234 17.00937507 49.44854599 12.61075575 65.0625 14.5625 C77.1097814 16.97513079 87.45546384 23.65026601 94.84765625 33.44921875 C101.73127989 44.22285084 103.39889575 55.4278346 102 68 C100.69485172 73.68015236 98.67300349 78.83460137 96 84 C96.94875 83.9175 97.8975 83.835 98.875 83.75 C107.70053453 83.83878807 114.59177409 88.52313023 120.796875 94.42578125 C126.9009279 101.55799909 129.36446959 110.28498387 129.2109375 119.54296875 C128.44394117 128.4770556 124.67450765 136.79384379 117.97265625 142.82421875 C114.78516426 145.27567907 111.6034743 147.22541296 108 149 C109.14476807 149.0093457 110.28953613 149.01869141 111.46899414 149.02832031 C115.7390758 149.06836199 120.0084477 149.13415952 124.27807617 149.20751953 C126.12173303 149.23564722 127.96550863 149.25690239 129.80932617 149.27099609 C132.46855097 149.29253991 135.12636034 149.3392467 137.78515625 149.390625 C138.60210464 149.39185364 139.41905304 149.39308228 140.26075745 149.39434814 C145.94483589 149.53799163 149.41257243 150.55466013 154 154 C156.87237559 158.57484384 157.43270355 162.48958569 157.38768005 167.77366638 C157.39575836 168.9193842 157.39575836 168.9193842 157.40399987 170.08824784 C157.41826287 172.63769231 157.41117997 175.18661634 157.40405273 177.73608398 C157.40975717 179.56795671 157.41672172 181.39982588 157.42485046 183.23168945 C157.44278873 188.20070524 157.44161223 193.1695445 157.43590808 198.13858294 C157.43281724 202.28873531 157.43890751 206.43885371 157.44494683 210.58900124 C157.4589926 220.38040782 157.45743027 230.17172716 157.44604492 239.96313477 C157.43456301 250.0606507 157.44864053 260.15790106 157.4754414 270.255382 C157.49760017 278.92902033 157.50423538 287.60257531 157.49836498 296.27623993 C157.49499472 301.45477251 157.49741522 306.63313485 157.51461601 311.8116436 C157.53008587 316.68154423 157.52612907 321.55105149 157.50731087 326.42093658 C157.50362514 328.20632667 157.506733 329.99174591 157.51719666 331.77710915 C157.53040974 334.21830849 157.51885733 336.65820613 157.50120544 339.09934998 C157.51081045 339.8024747 157.52041546 340.50559942 157.53031152 341.23003095 C157.4502821 346.62522865 155.96143916 349.64439017 153 354 C147.67252658 358.07125564 141.52962613 357.40234885 135.11962891 357.34057617 C133.92881714 357.34101425 132.73800537 357.34145233 131.5111084 357.34190369 C128.25934496 357.34017635 125.00797285 357.32516944 121.7562871 357.30418181 C118.35303491 357.2853808 114.94977438 357.28366189 111.54647827 357.28010559 C105.10798158 357.27079514 98.66963838 357.24619504 92.23120916 357.21605712 C84.89870403 357.18248186 77.56619142 357.16601927 70.23362851 357.15097082 C55.15565287 357.11964445 40.0778765 357.06464504 25 357 C25 367.56 25 378.12 25 389 C28.25875 388.9175 31.5175 388.835 34.875 388.75 C43.48125141 388.68345852 51.11385321 388.64068934 57.84765625 394.6484375 C64.04378347 401.35724664 64 406.43303531 64 416 C13.18 416 -37.64 416 -90 416 C-90 401.18243243 -90 401.18243243 -85.265625 396.16015625 C-77.91477142 389.19394035 -70.82143727 388.7029223 -61.0625 388.875 C-57.741875 388.91625 -54.42125 388.9575 -51 389 C-51 378.44 -51 367.88 -51 357 C-87.96 357 -124.92 357 -163 357 C-162.80238027 385.1816382 -162.80238027 385.1816382 -162.54956055 413.36279297 C-162.52697754 418.84008789 -162.52697754 418.84008789 -162.52278137 421.41238403 C-162.51515362 423.19117505 -162.49767289 424.96994182 -162.47212219 426.74856567 C-162.31181687 438.50562241 -162.53416214 447.10960921 -170.11328125 456.6640625 C-181.82121283 467.10346153 -195.9389209 472.39456422 -211 476 C-212.88525391 476.47953125 -212.88525391 476.47953125 -214.80859375 476.96875 C-235.79956031 481.67434258 -262.19795929 481.38507943 -283 476 C-283.66225586 475.83371094 -284.32451172 475.66742188 -285.00683594 475.49609375 C-300.89120975 471.40569706 -318.57185388 464.53166664 -327.7734375 450.34375 C-330.28680892 445.54112944 -331.25017146 441.22805457 -331.26069641 435.82754517 C-331.26778122 434.61080612 -331.27486603 433.39406708 -331.28216553 432.14045715 C-331.27987207 430.80538903 -331.27736242 429.47032126 -331.2746582 428.13525391 C-331.27900898 426.71879305 -331.28419334 425.30233455 -331.29014587 423.88587952 C-331.30350862 420.04901653 -331.30411753 416.21225222 -331.30158257 412.3753705 C-331.3005109 409.16725672 -331.30540131 405.95916274 -331.310188 402.75105321 C-331.321274 395.17939794 -331.32172585 387.60779227 -331.31567383 380.03613281 C-331.30963557 372.23694518 -331.32194332 364.43793803 -331.3432439 356.63878119 C-331.36088444 349.93199728 -331.36685735 343.22527069 -331.36360615 336.51846445 C-331.36179688 332.51754559 -331.36439367 328.51675545 -331.37832069 324.5158577 C-331.39093427 320.75158046 -331.38892184 316.98758361 -331.37590981 313.22331047 C-331.37243237 311.19239948 -331.38369625 309.16147978 -331.39547729 307.13059998 C-331.33273041 296.19575008 -329.35929439 289.49558767 -321.69921875 281.453125 C-298.03455447 259.94602056 -262.08894492 258.88366813 -232 260 C-217.29798895 261.04513342 -202.65105546 264.43723714 -189.24438477 270.59228516 C-188.26035172 271.04302399 -187.27631866 271.49376282 -186.26246643 271.9581604 C-185.51585251 272.30196747 -184.76923859 272.64577454 -184 273 C-183.99853344 272.41800528 -183.99706688 271.83601055 -183.99555588 271.23637962 C-183.95847664 257.06398078 -183.8994473 242.89181482 -183.81609726 228.71961021 C-183.77631668 221.86596671 -183.74391932 215.01243786 -183.72900391 208.15869141 C-183.71459001 201.54497769 -183.67946758 194.93158308 -183.63169098 188.31801224 C-183.61684884 185.79427808 -183.60895737 183.2704932 -183.60811615 180.74671555 C-183.6057534 177.21275657 -183.57872709 173.67978511 -183.54589844 170.14599609 C-183.55344398 168.57937729 -183.55344398 168.57937729 -183.56114197 166.98110962 C-183.4753204 161.01329618 -182.98730319 157.54029165 -179 153 C-173.65086667 149.10301027 -167.83643179 149.52652183 -161.4765625 149.48828125 C-160.37524994 149.47033005 -159.27393738 149.45237885 -158.13925171 149.43388367 C-154.63453965 149.37986242 -151.12996317 149.34591036 -147.625 149.3125 C-145.24347075 149.2793198 -142.86195938 149.24482949 -140.48046875 149.20898438 C-134.65376742 149.12414056 -128.82704837 149.05575596 -123 149 C-123.8038916 148.61618164 -124.6077832 148.23236328 -125.43603516 147.83691406 C-139.30966432 141.08372413 -147.73921958 132.836256 -153.375 118.375 C-157.34064318 105.39501666 -155.59395615 92.04509501 -149.4921875 80.03125 C-142.75686646 68.62819484 -133.08346074 61.20697222 -120.4453125 57.1875 C-116.26085504 56.17308607 -112.32054163 55.77843376 -108 56 C-108.03351563 54.83984375 -108.06703125 53.6796875 -108.1015625 52.484375 C-108.09599148 48.26154433 -107.43046223 44.3310531 -106.375 40.25 C-106.19678711 39.55825684 -106.01857422 38.86651367 -105.83496094 38.15380859 C-101.05298114 20.63201967 -89.52467338 6.63638576 -74.125 -2.8125 C-51.3002973 -15.50597983 -21.70816306 -14.62530039 0 0 Z " fill="#E2F0FE" transform="translate(343,22)"/>
<path d="M0 0 C5.54275745 4.97700262 10.21650897 11.66932756 10.90068722 19.25415325 C10.90766298 20.85380035 10.90766298 20.85380035 10.91477966 22.48576355 C10.92475479 23.71506592 10.93472992 24.94436829 10.94500732 26.21092224 C10.94590304 27.565338 10.94656665 28.91975394 10.94702148 30.27416992 C10.95464689 31.70694407 10.96307504 33.13971414 10.97224426 34.57247925 C10.99416292 38.45910224 11.00298499 42.34564655 11.00807071 46.23232436 C11.01171842 48.66384225 11.01796074 51.09533968 11.0250721 53.52684975 C11.04956071 62.01929246 11.06261651 70.51167418 11.06616211 79.00415039 C11.06979347 86.90391898 11.09966146 94.80329813 11.14156669 102.7029478 C11.17633672 109.49721732 11.19171173 116.29135824 11.19240814 123.08571607 C11.1931989 127.13824666 11.20184341 131.19038065 11.23040581 135.24281883 C11.25670103 139.05892722 11.25872881 142.87431353 11.24275017 146.69047165 C11.24094451 148.08437877 11.24754611 149.4783285 11.26356888 150.8721447 C11.37211805 160.9353193 9.83767381 168.08017455 3.52734375 176.03515625 C-8.18058783 186.47455528 -22.2982959 191.76565797 -37.359375 195.37109375 C-38.61621094 195.69078125 -39.87304688 196.01046875 -41.16796875 196.33984375 C-62.15893531 201.04543633 -88.55733429 200.75617318 -109.359375 195.37109375 C-110.02163086 195.20480469 -110.68388672 195.03851563 -111.36621094 194.8671875 C-127.25058475 190.77679081 -144.93122888 183.90276039 -154.1328125 169.71484375 C-156.64618392 164.91222319 -157.60954646 160.59914832 -157.62007141 155.19863892 C-157.62715622 153.98189987 -157.63424103 152.76516083 -157.64154053 151.5115509 C-157.63924707 150.17648278 -157.63673742 148.84141501 -157.6340332 147.50634766 C-157.63838398 146.0898868 -157.64356834 144.6734283 -157.64952087 143.25697327 C-157.66288362 139.42011028 -157.66349253 135.58334597 -157.66095757 131.74646425 C-157.6598859 128.53835047 -157.66477631 125.33025649 -157.669563 122.12214696 C-157.680649 114.55049169 -157.68110085 106.97888602 -157.67504883 99.40722656 C-157.66901057 91.60803893 -157.68131832 83.80903178 -157.7026189 76.00987494 C-157.72025944 69.30309103 -157.72623235 62.59636444 -157.72298115 55.8895582 C-157.72117188 51.88863934 -157.72376867 47.8878492 -157.73769569 43.88695145 C-157.75030927 40.12267421 -157.74829684 36.35867736 -157.73528481 32.59440422 C-157.73180737 30.56349323 -157.74307125 28.53257353 -157.75485229 26.50169373 C-157.69210541 15.56684383 -155.71866939 8.86668142 -148.05859375 0.82421875 C-112.05158722 -31.89994927 -36.90149375 -28.642128 0 0 Z " fill="#4DB0FC" transform="translate(169.359375,302.62890625)"/>
<path d="M0 0 C8.74100634 6.75861905 16.90574286 15.1111479 22 25 C22 25.66 22 26.32 22 27 C22.64324219 26.55269531 23.28648437 26.10539062 23.94921875 25.64453125 C36.8559234 17.00937507 49.44854599 12.61075575 65.0625 14.5625 C77.1097814 16.97513079 87.45546384 23.65026601 94.84765625 33.44921875 C101.73127989 44.22285084 103.39889575 55.4278346 102 68 C100.69485172 73.68015236 98.67300349 78.83460137 96 84 C96.94875 83.9175 97.8975 83.835 98.875 83.75 C107.70053453 83.83878807 114.59177409 88.52313023 120.796875 94.42578125 C126.9009279 101.55799909 129.36446959 110.28498387 129.2109375 119.54296875 C128.4450764 128.46383232 124.68188638 136.71995217 118.04296875 142.7890625 C110.26209135 148.82928473 103.38475451 151.13330272 93.53564453 151.11352539 C92.27479034 151.11344986 91.01393616 151.11337433 89.71487427 151.11329651 C88.3541866 151.10819109 86.99349935 151.10297511 85.6328125 151.09765625 C84.22891287 151.09578912 82.82501258 151.09436661 81.42111206 151.09336853 C77.74192478 151.08956658 74.06277752 151.07975633 70.38360596 151.06866455 C66.62293031 151.05840031 62.86224814 151.0538602 59.1015625 151.04882812 C51.73435683 151.03813179 44.36718404 151.02108352 37 151 C36.99413376 150.1945575 36.98826752 149.38911499 36.98222351 148.55926514 C36.92430717 140.96677143 36.85223701 133.37460629 36.76428509 125.78240585 C36.71956727 121.87920956 36.68031451 117.97611798 36.65356445 114.07275391 C36.62754516 110.30539845 36.58715318 106.53844565 36.53681374 102.77133942 C36.52013558 101.33449565 36.50862718 99.89758222 36.50238609 98.46065521 C36.49275628 96.44729072 36.46300123 94.43405298 36.43237305 92.42089844 C36.42126999 91.27506287 36.41016693 90.12922729 36.39872742 88.94866943 C35.93642052 85.52981697 35.70479961 84.17635259 33 82 C29.93278856 81.6035779 27.22318659 81.4636146 24.15405273 81.49829102 C23.24974518 81.49288803 22.34543762 81.48748505 21.41372681 81.48191833 C18.42001779 81.46939508 15.42726363 81.48594471 12.43359375 81.50390625 C10.35758921 81.50375136 8.28158437 81.50226403 6.20558167 81.49949646 C1.85347725 81.4981109 -2.49829823 81.51069801 -6.8503418 81.53344727 C-12.43842668 81.56184987 -18.02596552 81.55909182 -23.61409092 81.54635715 C-27.90081984 81.53941429 -32.18742174 81.54717301 -36.47413445 81.55961418 C-38.53508963 81.564141 -40.59605839 81.5644548 -42.65701485 81.56054878 C-45.53277848 81.55764975 -48.40777977 81.57407999 -51.28344727 81.59594727 C-52.14116226 81.59144562 -52.99887726 81.58694397 -53.88258362 81.58230591 C-56.48512767 81.57973916 -56.48512767 81.57973916 -60 82 C-62.36246505 85.54369758 -62.27004845 87.10250808 -62.31884766 91.30737305 C-62.33871735 92.60849533 -62.35858704 93.90961761 -62.37905884 95.25016785 C-62.39093531 96.67068309 -62.40259816 98.09120012 -62.4140625 99.51171875 C-62.43277235 100.96475833 -62.45234562 102.41778703 -62.4727478 103.87080383 C-62.52409464 107.69297877 -62.56370653 111.51518895 -62.60089111 115.33752441 C-62.64091487 119.238777 -62.69201461 123.1398827 -62.7421875 127.04101562 C-62.83897694 134.69390967 -62.92337189 142.34687472 -63 150 C-70.22444557 150.11668207 -77.44868268 150.20510886 -84.67388535 150.25906086 C-88.03029306 150.2849777 -91.3855615 150.32280115 -94.74169922 150.37719727 C-98.61442773 150.43836076 -102.48624888 150.46632847 -106.359375 150.48828125 C-108.13667999 150.52699089 -108.13667999 150.52699089 -109.94989014 150.56648254 C-123.4264925 150.57094594 -133.32988315 145.29823239 -142.93359375 136.16015625 C-151.72053571 126.9196947 -155.43203533 114.83430865 -155.36352539 102.27075195 C-155.01874824 88.8765429 -149.48508979 76.93954241 -139.8125 67.6875 C-130.7752868 60.18984611 -119.84747836 55.39243701 -108 56 C-108.03351563 54.83984375 -108.06703125 53.6796875 -108.1015625 52.484375 C-108.09599148 48.26154433 -107.43046223 44.3310531 -106.375 40.25 C-106.19678711 39.55825684 -106.01857422 38.86651367 -105.83496094 38.15380859 C-101.05298114 20.63201967 -89.52467338 6.63638576 -74.125 -2.8125 C-51.3002973 -15.50597983 -21.70816306 -14.62530039 0 0 Z " fill="#66DDFE" transform="translate(343,22)"/>
<path d="M0 0 C1.3540519 -0.00810448 1.3540519 -0.00810448 2.73545837 -0.01637268 C5.72436135 -0.02889719 8.71230807 -0.01234418 11.70117188 0.00561523 C13.77478079 0.00546033 15.84839 0.00397283 17.92199707 0.00120544 C22.26990543 -0.00018022 26.61748458 0.01240762 30.96533203 0.03515625 C36.54435073 0.06354121 42.12282222 0.06080571 47.70188141 0.04806614 C51.98436168 0.04111802 56.26671501 0.04888834 60.54917908 0.06132317 C62.60651666 0.0658461 64.66386783 0.06616715 66.72120667 0.06225777 C69.59437085 0.05935407 72.46677543 0.07581227 75.33984375 0.09765625 C76.62102333 0.09090378 76.62102333 0.09090378 77.92808533 0.08401489 C83.70830642 0.15719732 83.70830642 0.15719732 85.88806343 1.783988 C88.16643807 4.83706453 87.58417754 8.66477005 87.55810547 12.33178711 C87.56599091 13.685839 87.56599091 13.685839 87.57403564 15.06724548 C87.58725703 18.05599182 87.57848995 21.04420708 87.56835938 24.03295898 C87.57037949 26.10656843 87.57329041 28.18017718 87.57705688 30.25378418 C87.58148314 34.60163124 87.57503942 38.94929353 87.56103516 43.29711914 C87.54394319 48.87611854 87.55378275 54.45468501 87.57175255 60.03366852 C87.58258219 64.31613438 87.57914779 68.59849725 87.57136917 72.88096619 C87.5693649 74.93830923 87.57183437 76.99566157 87.57880783 79.05299377 C87.58640877 81.92612555 87.57483709 84.79855176 87.55810547 87.67163086 C87.56417816 88.52575058 87.57025085 89.3798703 87.57650757 90.25987244 C87.51385946 96.0533679 87.51385946 96.0533679 85.83361244 98.24365997 C84.16992188 99.50170898 84.16992188 99.50170898 81.16992188 99.50170898 C81.16992188 106.76170898 81.16992188 114.02170898 81.16992188 121.50170898 C85.75467459 121.44185582 90.33611508 121.35486706 94.91992188 121.25170898 C96.87285156 121.23043945 96.87285156 121.23043945 98.86523438 121.20874023 C100.74082031 121.16040039 100.74082031 121.16040039 102.65429688 121.11108398 C103.80639648 121.09013672 104.95849609 121.06918945 106.14550781 121.04760742 C109.75889655 120.39540067 110.83737461 119.25064047 113.16992188 116.50170898 C117.16522994 114.50405495 121.83838548 114.85227643 126.16992188 115.50170898 C129.66021979 117.47448607 132.3683682 119.89860163 134.16992188 123.50170898 C134.7130976 128.45262219 134.69234136 132.39659084 132.54492188 136.93920898 C128.75466148 141.02870047 125.24518413 142.64231391 119.73242188 143.06420898 C115.98228226 142.92391725 114.50339427 142.20908851 111.94042969 139.50805664 C107.85893543 135.82175295 104.61991309 135.69053207 99.27929688 135.83764648 C98.45286682 135.83342682 97.62643677 135.82920715 96.77496338 135.82485962 C94.15568229 135.81405354 91.5389654 135.84198134 88.91992188 135.87670898 C86.28695204 135.90075876 83.65510712 135.91595744 81.02203369 135.90713501 C79.38927666 135.90255749 77.75632492 135.9172794 76.1239624 135.95346069 C70.74588922 135.95089195 70.74588922 135.95089195 68.16577148 133.9387207 C66.78540358 130.56072796 66.83354453 127.75740627 66.87695312 124.11108398 C66.88119797 123.40647034 66.88544281 122.70185669 66.88981628 121.97589111 C66.90655649 119.73410187 66.94419783 117.49322468 66.98242188 115.25170898 C66.99747484 113.7282845 67.01116218 112.20484588 67.0234375 110.68139648 C67.05644396 106.95453958 67.10819334 103.22821336 67.16992188 99.50170898 C63.86992187 99.50170898 60.56992187 99.50170898 57.16992188 99.50170898 C54.53036919 125.56848395 54.53036919 125.56848395 62.11523438 149.51733398 C68.57742854 156.70598177 75.15532336 161.92280168 84.93945312 163.01513672 C88.85807211 163.86997556 91.55993666 166.56447792 94.16992188 169.50170898 C96.38060046 173.92306616 95.56775281 179.26141254 94.10742188 183.81420898 C91.12025125 187.95770373 87.8709956 189.94813204 82.95898438 190.95483398 C78.48049252 191.291103 75.75663975 190.64970237 72.23242188 187.81420898 C69.63842207 185.24422769 67.96777308 183.1363645 67.16992188 179.50170898 C67.26660156 178.38070801 67.36328125 177.25970703 67.46289062 176.10473633 C67.55204661 172.40978933 67.55204661 172.40978933 64.96679688 170.28149414 C63.96132813 169.62455566 62.95585937 168.96761719 61.91992188 168.29077148 C53.83273963 162.3834544 44.95893225 155.87803909 42.48291016 145.66906738 C40.26907413 130.49491609 41.76411352 114.69885775 43.16992188 99.50170898 C39.86992187 99.50170898 36.56992187 99.50170898 33.16992188 99.50170898 C33.20657959 100.91387695 33.2432373 102.32604492 33.28100586 103.78100586 C33.40815288 109.04370811 33.48822975 114.30627594 33.55444336 119.57006836 C33.58954484 121.84373846 33.63723933 124.11725169 33.69799805 126.39038086 C33.78336875 129.66746791 33.8227143 132.94245899 33.85351562 136.22045898 C33.88964462 137.22911011 33.92577362 138.23776123 33.96299744 139.27697754 C33.96595191 144.64364335 33.45781048 147.81354899 29.89794922 151.94970703 C28.68024893 153.15937916 27.43971783 154.34684151 26.16992188 155.50170898 C25.40317139 156.2587915 24.6364209 157.01587402 23.84643555 157.79589844 C23.18361572 158.39619873 22.5207959 158.99649902 21.83789062 159.61499023 C20.73477539 160.65236328 20.73477539 160.65236328 19.609375 161.71069336 C18.10340319 163.11739903 16.58230625 164.50807834 15.046875 165.88256836 C10.04179418 170.65753052 8.19439305 174.17593479 7.55151367 181.10180664 C6.9660202 184.78408481 5.08764662 186.34815025 2.16992188 188.50170898 C-2.11182207 190.96481529 -5.98092258 191.44868212 -10.83007812 190.50170898 C-15.03795001 188.05637966 -17.9686784 185.01472529 -19.83007812 180.50170898 C-20.31516053 175.26281905 -19.6863893 171.93391598 -16.83007812 167.50170898 C-13.82158212 164.22775744 -11.76091641 163.35371747 -7.45507812 163.12670898 C-6.74609375 163.13959961 -6.03710938 163.15249023 -5.30664062 163.16577148 C-2.61434716 162.44386314 -1.68183205 161.66164804 0.36523438 159.83374023 C2.80709619 157.67514984 5.28641121 155.62880458 7.86767578 153.63989258 C13.46570425 149.03264906 18.14562502 144.73815648 19.39160156 137.33862305 C19.92802499 131.59224245 19.7567269 125.88551579 19.54492188 120.12670898 C19.52286579 118.11895683 19.50719427 116.11112394 19.49804688 114.10327148 C19.46216437 109.23202908 19.34030342 104.37002658 19.16992188 99.50170898 C15.86992187 99.50170898 12.56992187 99.50170898 9.16992188 99.50170898 C9.18039551 100.41984375 9.19086914 101.33797852 9.20166016 102.28393555 C9.23579402 105.69818645 9.26084597 109.11225537 9.27978516 112.52661133 C9.28982778 114.00287746 9.30346453 115.47912377 9.32080078 116.95532227 C9.34512609 119.08020933 9.35642228 121.20483283 9.36523438 123.32983398 C9.37570801 124.60761719 9.38618164 125.88540039 9.39697266 127.2019043 C9.18427034 130.29317791 8.90907815 131.97882585 7.16992188 134.50170898 C3.93649036 136.11842474 0.39052191 135.63780175 -3.16210938 135.64233398 C-4.8645967 135.66066355 -6.56707102 135.680234 -8.26953125 135.70092773 C-10.95570749 135.72988788 -13.64105011 135.75170871 -16.32739258 135.75219727 C-18.91888524 135.7555359 -21.50845166 135.79010929 -24.09960938 135.82983398 C-25.29829399 135.81922943 -25.29829399 135.81922943 -26.52119446 135.80841064 C-30.80864881 135.90175872 -32.32442315 136.06304563 -35.68823242 138.98120117 C-36.3950415 139.81296875 -37.10185059 140.64473633 -37.83007812 141.50170898 C-43.23123173 143.30209352 -48.04718633 143.36013837 -53.20507812 140.87670898 C-57.19975706 137.26247567 -58.95073933 133.85730673 -59.26757812 128.50170898 C-59.09756273 124.26751595 -57.55847549 121.76062806 -54.83007812 118.50170898 C-50.87589025 114.90699274 -47.69759909 115.01024458 -42.53320312 115.13452148 C-38.26643363 115.71411156 -35.86469113 117.46709598 -32.83007812 120.50170898 C-30.75923093 120.66013548 -28.68329783 120.75295321 -26.60742188 120.81811523 C-25.34736328 120.86000977 -24.08730469 120.9019043 -22.7890625 120.94506836 C-21.44857077 120.98488495 -20.10807593 121.02459712 -18.76757812 121.06420898 C-17.4231629 121.10738941 -16.07876153 121.15100354 -14.734375 121.19506836 C-11.43307799 121.30156181 -8.13159233 121.40217648 -4.83007812 121.50170898 C-4.83007812 114.24170898 -4.83007812 106.98170898 -4.83007812 99.50170898 C-6.48007812 99.17170898 -8.13007813 98.84170898 -9.83007812 98.50170898 C-12.4193292 94.61783237 -12.11812014 91.37580741 -12.10473633 86.87109375 C-12.10984726 85.98950592 -12.11495819 85.10791809 -12.120224 84.19961548 C-12.13414248 81.28071332 -12.13316154 78.36204667 -12.13085938 75.44311523 C-12.13474506 73.41674206 -12.13907946 71.39036971 -12.1438446 69.36399841 C-12.15131166 65.11454632 -12.151012 60.86517729 -12.14575195 56.61572266 C-12.13995661 51.16687575 -12.15688763 45.71836868 -12.18009663 40.26957798 C-12.19481983 36.08402006 -12.19570759 31.89854424 -12.1925869 27.71296501 C-12.19310082 25.70389063 -12.19835178 23.69481173 -12.20839882 21.68576241 C-12.2207185 18.87752244 -12.21399842 16.06994785 -12.20239258 13.26171875 C-12.21385818 12.0139843 -12.21385818 12.0139843 -12.22555542 10.74104309 C-12.19687185 7.60516491 -11.99313693 4.9240723 -10.85868835 1.98556519 C-7.54904602 -0.43532042 -3.94137758 -0.04461332 0 0 Z " fill="#FE8749" transform="translate(291.830078125,102.498291015625)"/>
<path d="M0 0 C0.33 0 0.66 0 1 0 C1.20625 1.134375 1.4125 2.26875 1.625 3.4375 C3.85485544 12.18658559 9.37060844 18.45483056 17 23 C49.24802217 41.3842097 89.56450892 43.94343954 125.20703125 34.79150391 C139.94270448 30.61553777 155.00454643 23.91994067 164 11 C165.31374217 8.32813247 166.16420582 5.87304249 167 3 C167.33 3 167.66 3 168 3 C168.12754127 9.65262205 168.21465991 16.30492492 168.2746582 22.95849609 C168.29968909 25.21838157 168.33372438 27.47818702 168.37719727 29.73779297 C168.43835233 32.99987619 168.46632502 36.26088245 168.48828125 39.5234375 C168.51408768 40.52176605 168.5398941 41.5200946 168.56648254 42.54867554 C168.56976789 50.90212208 166.07204536 57.12729217 160.88671875 63.6640625 C149.17878717 74.10346153 135.0610791 79.39456422 120 83 C118.74316406 83.3196875 117.48632812 83.639375 116.19140625 83.96875 C95.20043969 88.67434258 68.80204071 88.38507943 48 83 C47.33774414 82.83371094 46.67548828 82.66742188 45.99316406 82.49609375 C30.10879025 78.40569706 12.42814612 71.53166664 3.2265625 57.34375 C-0.20594388 50.78482062 -0.26718014 44.94188462 -0.1953125 37.6953125 C-0.1924826 36.61619598 -0.18965271 35.53707947 -0.18673706 34.42526245 C-0.1755766 30.99172701 -0.1504793 27.55845609 -0.125 24.125 C-0.11496487 21.79167044 -0.10583995 19.45833678 -0.09765625 17.125 C-0.07565079 11.416577 -0.04221427 5.70830741 0 0 Z " fill="#65DDFE" transform="translate(12,415)"/>
<path d="M0 0 C0.33 0 0.66 0 1 0 C1.14695312 0.6290625 1.29390625 1.258125 1.4453125 1.90625 C4.38720827 13.13279477 10.15455205 19.08995003 20 25 C27.6836516 29.32984151 35.48611957 32.69792283 44 35 C44.6482373 35.18336914 45.29647461 35.36673828 45.96435547 35.55566406 C77.29813979 44.06394182 118.58696066 42.10132461 147.23828125 26.203125 C149.90480875 24.55023113 152.47111174 22.85536526 155 21 C155.85851562 20.37480469 156.71703125 19.74960937 157.6015625 19.10546875 C160.13416048 16.88222721 161.54185195 14.86260632 163.1875 11.9375 C163.92033203 10.65166016 163.92033203 10.65166016 164.66796875 9.33984375 C165.10753906 8.56769531 165.54710937 7.79554688 166 7 C166.66 6.01 167.32 5.02 168 4 C168.09938176 10.24385004 168.17171075 16.48723272 168.21972656 22.73168945 C168.23975746 24.85286487 168.26699025 26.97398565 168.30175781 29.0949707 C168.35065214 32.15589941 168.37305452 35.21609376 168.390625 38.27734375 C168.41127014 39.21521225 168.43191528 40.15308075 168.45318604 41.11936951 C168.45629248 50.37579273 165.33684724 57.38135188 159.01953125 64.09765625 C148.09444545 74.38879123 133.54593489 80.09811337 119 83 C117.87980469 83.27714844 116.75960937 83.55429687 115.60546875 83.83984375 C105.72086902 86.01305362 95.95546868 86.29574487 85.875 86.3125 C85.20271362 86.31599457 84.53042725 86.31948914 83.83776855 86.3230896 C59.23862703 86.39393189 33.05114318 82.26474126 13 67 C11.948125 66.2575 10.89625 65.515 9.8125 64.75 C3.71441336 58.7874264 0.22938795 52.26083224 -0.08470154 43.68818665 C-0.11561019 40.90871512 -0.11236702 38.13116621 -0.09765625 35.3515625 C-0.0962413 34.33903412 -0.09482635 33.32650574 -0.09336853 32.28329468 C-0.08779143 29.06383249 -0.07524312 25.84444101 -0.0625 22.625 C-0.05748204 20.43619892 -0.05291965 18.24739675 -0.04882812 16.05859375 C-0.0378295 10.70570523 -0.0211142 5.35285767 0 0 Z " fill="#4DB1FB" transform="translate(12,369)"/>
<path d="M0 0 C1.54237527 2.3135629 2.54048943 4.18907145 3.625 6.6875 C10.41188739 20.28622657 24.73766707 25.76771023 38.2578125 30.4609375 C72.84254483 41.97080259 113.67028421 39.36074794 146.390625 23.33984375 C156.83459964 17.57991301 163.40992173 11.52604075 167 0 C167.33 0 167.66 0 168 0 C168.12757048 6.51020197 168.21467172 13.02007749 168.2746582 19.53125 C168.29968484 21.74263555 168.3337169 23.95393937 168.37719727 26.16503906 C168.43837176 29.35762791 168.46632914 32.54911613 168.48828125 35.7421875 C168.51408768 36.71864227 168.5398941 37.69509705 168.56648254 38.70114136 C168.56983905 47.05759424 165.68306006 52.72697842 161.3125 59.6875 C152.41516328 68.58483672 140.72231963 74.08912634 128.8125 77.6875 C128.19109131 77.87779785 127.56968262 78.0680957 126.92944336 78.26416016 C112.81232787 82.2726591 98.85763518 83.55017466 84.25 83.4375 C83.42193848 83.43479095 82.59387695 83.43208191 81.74072266 83.42929077 C68.84167491 83.36543564 56.4520576 82.64673729 44 79 C43.33726074 78.80744629 42.67452148 78.61489258 41.99169922 78.41650391 C26.9289407 73.86229276 12.05867048 66.92589723 3.15625 53.46875 C-0.00902387 46.71046255 -0.27937107 40.13551874 -0.1953125 32.8125 C-0.1924826 31.86938965 -0.18965271 30.9262793 -0.18673706 29.95458984 C-0.17562442 26.96959244 -0.15053672 23.98490531 -0.125 21 C-0.11495866 18.96484811 -0.10583484 16.92969148 -0.09765625 14.89453125 C-0.07571435 9.92956963 -0.04124673 4.96483725 0 0 Z " fill="#65DDFE" transform="translate(12,326)"/>
<path d="M0 0 C25.08 0 50.16 0 76 0 C76 10.56 76 21.12 76 32 C79.25875 31.9175 82.5175 31.835 85.875 31.75 C94.48125141 31.68345852 102.11385321 31.64068934 108.84765625 37.6484375 C115.04378347 44.35724664 115 49.43303531 115 59 C64.18 59 13.36 59 -39 59 C-39 44.18243243 -39 44.18243243 -34.265625 39.16015625 C-26.91477142 32.19394035 -19.82143727 31.7029223 -10.0625 31.875 C-6.741875 31.91625 -3.42125 31.9575 0 32 C0 21.44 0 10.88 0 0 Z " fill="#8F9BD0" transform="translate(292,379)"/>
<path d="M0 0 C8.74100634 6.75861905 16.90574286 15.1111479 22 25 C22 25.66 22 26.32 22 27 C22.64324219 26.55269531 23.28648437 26.10539062 23.94921875 25.64453125 C36.8559234 17.00937507 49.44854599 12.61075575 65.0625 14.5625 C77.1097814 16.97513079 87.45546384 23.65026601 94.84765625 33.44921875 C101.73127989 44.22285084 103.39889575 55.4278346 102 68 C100.69485172 73.68015236 98.67300349 78.83460137 96 84 C96.94875 83.9175 97.8975 83.835 98.875 83.75 C107.70053453 83.83878807 114.59177409 88.52313023 120.796875 94.42578125 C126.9009279 101.55799909 129.36446959 110.28498387 129.2109375 119.54296875 C128.4450764 128.46383232 124.68188638 136.71995217 118.04296875 142.7890625 C111.4631725 147.89689668 106.37708842 150.43329768 98 150 C98.721875 149.443125 99.44375 148.88625 100.1875 148.3125 C106.2626266 143.31739591 111.51178949 138.00798987 113 130 C113.59668807 122.0572014 114.15174127 114.49440472 109 108 C101.9998903 100.01163952 93.29884806 97.29849506 83 96 C83.3609375 95.23300781 83.721875 94.46601562 84.09375 93.67578125 C89.2180774 81.42009822 90.80432703 66.89404895 85.9375 54.25 C79.370722 41.35490241 69.73592908 33.48225054 56 29 C44.54293614 25.3985179 32.32821302 28.3171032 21.953125 33.53125 C19.27409322 34.97707667 16.63808435 36.48136592 14 38 C12.67209354 38.67741174 11.34069844 39.34827159 10 40 C9.443125 39.09378906 8.88625 38.18757813 8.3125 37.25390625 C-1.65876923 21.2386426 -13.62212124 8.3495446 -32.546875 3.5390625 C-50.48333209 0.73902734 -66.4280141 3.76000338 -81.6640625 13.74609375 C-96.64949705 24.90397923 -103.7217972 40.88938141 -106.625 58.87109375 C-107.1141644 62.2442899 -107.57477524 65.61821249 -108 69 C-108.84820312 69.06316406 -109.69640625 69.12632813 -110.5703125 69.19140625 C-122.09559853 70.39459545 -132.41179462 73.6902958 -140.625 82.375 C-143.98262907 86.5935596 -146.21056847 90.93308336 -148 96 C-148.4125 97.0725 -148.825 98.145 -149.25 99.25 C-151.18020989 108.90104943 -149.92799641 118.44608921 -148 128 C-155.45053193 118.86295797 -156.0782301 107.27139503 -155 96 C-152.54830257 82.91460899 -145.91095869 71.73071027 -135 64 C-126.45650906 58.87846805 -118.06613546 55.48378792 -108 56 C-108.03351563 54.83984375 -108.06703125 53.6796875 -108.1015625 52.484375 C-108.09599148 48.26154433 -107.43046223 44.3310531 -106.375 40.25 C-106.19678711 39.55825684 -106.01857422 38.86651367 -105.83496094 38.15380859 C-101.05298114 20.63201967 -89.52467338 6.63638576 -74.125 -2.8125 C-51.3002973 -15.50597983 -21.70816306 -14.62530039 0 0 Z " fill="#2DCFFC" transform="translate(343,22)"/>
<path d="M0 0 C5.72380796 5.13957313 10.10403673 11.81009344 11.015625 19.55859375 C10.16567142 28.19978852 6.72361295 34.33560163 0.375 40.20703125 C-9.2049986 47.78891586 -19.73572793 51.98493326 -31.359375 55.37109375 C-31.44574219 54.0665625 -31.53210938 52.76203125 -31.62109375 51.41796875 C-32.7544868 36.51256549 -35.30574333 24.26401026 -46.359375 13.37109375 C-54.25791203 6.82210808 -62.5614629 2.53042051 -72.359375 -0.62890625 C-73.04902344 -0.86222656 -73.73867187 -1.09554688 -74.44921875 -1.3359375 C-96.21992929 -8.19790749 -122.9479187 -4.81415903 -143.0612793 5.2890625 C-147.28424633 7.54220569 -150.77080631 10.20632842 -154.359375 13.37109375 C-155.019375 13.04109375 -155.679375 12.71109375 -156.359375 12.37109375 C-146.64077981 -4.09334987 -130.82530416 -11.94950069 -112.79296875 -16.59765625 C-76.00638947 -25.38542569 -30.96755302 -24.03633369 0 0 Z " fill="#2A92FA" transform="translate(169.359375,302.62890625)"/>
<path d="M0 0 C19.8 0 39.6 0 60 0 C60 20.13 60 40.26 60 61 C40.2 61 20.4 61 0 61 C0 40.87 0 20.74 0 0 Z " fill="#F3F3FF" transform="translate(300,122)"/>
<path d="M0 0 C16.48408872 -0.76374156 16.48408872 -0.76374156 22 4 C24.84359592 8.59523209 25.43276565 12.48229686 25.38768005 17.77366638 C25.39575836 18.9193842 25.39575836 18.9193842 25.40399987 20.08824784 C25.41826287 22.63769231 25.41117997 25.18661634 25.40405273 27.73608398 C25.40975717 29.56795671 25.41672172 31.39982588 25.42485046 33.23168945 C25.44278873 38.20070524 25.44161223 43.1695445 25.43590808 48.13858294 C25.43281724 52.28873531 25.43890751 56.43885371 25.44494683 60.58900124 C25.4589926 70.38040782 25.45743027 80.17172716 25.44604492 89.96313477 C25.43456301 100.0606507 25.44864053 110.15790106 25.4754414 120.255382 C25.49760017 128.92902033 25.50423538 137.60257531 25.49836498 146.27623993 C25.49499472 151.45477251 25.49741522 156.63313485 25.51461601 161.8116436 C25.53008587 166.68154423 25.52612907 171.55105149 25.50731087 176.42093658 C25.50362514 178.20632667 25.506733 179.99174591 25.51719666 181.77710915 C25.53040974 184.21830849 25.51885733 186.65820613 25.50120544 189.09934998 C25.51561295 190.15403706 25.51561295 190.15403706 25.53031152 191.23003095 C25.44970411 196.66419406 24.15268316 199.7038603 21 204 C16.43999549 207.19263851 12.16808988 207.42351103 6.7616272 207.36076355 C5.94795728 207.36332682 5.13428736 207.3658901 4.29596078 207.36853105 C1.5781257 207.37346002 -1.13914996 207.3569908 -3.85693359 207.34057617 C-5.80853258 207.33972971 -7.76013252 207.34020542 -9.71173096 207.34190369 C-15.00467909 207.34276431 -20.2974232 207.32512759 -25.59032393 207.30418181 C-31.12365147 207.28542624 -36.65698371 207.28366545 -42.19033813 207.28010559 C-52.66622654 207.27078185 -63.14202102 207.24616355 -73.61786807 207.21605712 C-85.54521566 207.18252341 -97.47256774 207.16602968 -109.39995074 207.15097082 C-133.93335257 207.11961434 -158.46667102 207.06684738 -183 207 C-183 206.67 -183 206.34 -183 206 C-182.0502467 205.99668985 -181.10049339 205.99337971 -180.12195969 205.98996925 C-157.02933127 205.90903235 -133.93676967 205.81673445 -110.84423447 205.71247292 C-99.67693201 205.66231712 -88.50963701 205.61587455 -77.34228516 205.578125 C-67.61063349 205.54521925 -57.87903914 205.5053959 -48.14745069 205.45720994 C-42.99302489 205.43193087 -37.83863719 205.41015373 -32.68416595 205.39665604 C-27.83494244 205.38384849 -22.98584949 205.36180818 -18.13669777 205.33261681 C-16.35490389 205.3235308 -14.57308897 205.31784842 -12.79127312 205.31578636 C-10.36214415 205.31247104 -7.93338697 205.29701358 -5.5043335 205.2784729 C-4.44207239 205.281375 -4.44207239 205.281375 -3.35835147 205.28433573 C1.67885945 205.2561834 1.67885945 205.2561834 6 203 C8.96654969 198.47001165 9.43067883 194.45529142 9.38095093 189.1749115 C9.3856309 188.40560494 9.39031087 187.63629837 9.39513266 186.84367949 C9.40706214 184.27573592 9.39763366 181.70832803 9.38818359 179.14038086 C9.39225017 177.29541208 9.39759254 175.45044574 9.40411377 173.60548401 C9.4177819 168.60147012 9.41249101 163.59764194 9.40297651 158.59362483 C9.39537849 153.35623981 9.40242582 148.11887063 9.40713501 142.88148499 C9.41259165 134.08754625 9.40540281 125.29368312 9.39111328 116.49975586 C9.37478189 106.33180211 9.38007922 96.16402878 9.3965925 85.99607939 C9.41020389 77.26557589 9.41212887 68.53512671 9.40427649 59.80461603 C9.39959873 54.59041133 9.3989781 49.37629146 9.40888596 44.16209221 C9.41754844 39.26105865 9.4115468 34.3602579 9.39420319 29.4592495 C9.39023473 27.66012204 9.39137852 25.860975 9.39799118 24.06185532 C9.4061825 21.60700685 9.39591472 19.15290564 9.38095093 16.69810486 C9.39098918 15.62884283 9.39098918 15.62884283 9.40123022 14.53797954 C9.34984333 10.19533167 8.69740883 7.43276079 6 4 C2.93319201 2.17370206 2.93319201 2.17370206 0 1 C0 0.67 0 0.34 0 0 Z " fill="#B6DAFD" transform="translate(475,172)"/>
<path d="M0 0 C25.08 0 50.16 0 76 0 C76 10.89 76 21.78 76 33 C50.92 33 25.84 33 0 33 C0 22.11 0 11.22 0 0 Z " fill="#5D689E" transform="translate(292,379)"/>
<path d="M0 0 C0.33 0 0.66 0 1 0 C1.12754127 6.65262205 1.21465991 13.30492492 1.2746582 19.95849609 C1.29968909 22.21838157 1.33372438 24.47818702 1.37719727 26.73779297 C1.43835233 29.99987619 1.46632502 33.26088245 1.48828125 36.5234375 C1.51408768 37.52176605 1.5398941 38.5200946 1.56648254 39.54867554 C1.56976789 47.90212208 -0.92795464 54.12729217 -6.11328125 60.6640625 C-11.03018285 65.04822698 -16.09216699 68.3972542 -21.9375 71.375 C-22.56889893 71.69678223 -23.20029785 72.01856445 -23.85083008 72.35009766 C-29.55366822 75.08335502 -34.66038638 76.27101447 -41 78 C-41 62.82 -41 47.64 -41 32 C-34.07 29.03 -27.14 26.06 -20 23 C-10.32413652 17.13272108 -3.3423726 11.01016857 0 0 Z " fill="#2DCFFC" transform="translate(179,418)"/>
<path d="M0 0 C0.33 0 0.66 0 1 0 C1.12757048 6.51020197 1.21467172 13.02007749 1.2746582 19.53125 C1.29968484 21.74263555 1.3337169 23.95393937 1.37719727 26.16503906 C1.43837176 29.35762791 1.46632914 32.54911613 1.48828125 35.7421875 C1.51408768 36.71864227 1.5398941 37.69509705 1.56648254 38.70114136 C1.56983905 47.05759424 -1.31693994 52.72697842 -5.6875 59.6875 C-15.50641282 69.50641282 -27.84774458 74.41302125 -41 78 C-41 62.82 -41 47.64 -41 32 C-37.7 30.68 -34.4 29.36 -31 28 C-18.38452751 22.42099843 -6.36791605 16.53648396 -1 3 C-0.67 2.01 -0.34 1.02 0 0 Z " fill="#2DCEFC" transform="translate(179,326)"/>
<path d="M0 0 C0.33 0 0.66 0 1 0 C1.09938176 6.24385004 1.17171075 12.48723272 1.21972656 18.73168945 C1.23975746 20.85286487 1.26699025 22.97398565 1.30175781 25.0949707 C1.35065214 28.15589941 1.37305452 31.21609376 1.390625 34.27734375 C1.41127014 35.21521225 1.43191528 36.15308075 1.45318604 37.11936951 C1.45629248 46.37579273 -1.66315276 53.38135188 -7.98046875 60.09765625 C-14.0361288 65.80192404 -20.77086248 69.56688303 -28.3125 72.9375 C-28.9943335 73.24437744 -29.67616699 73.55125488 -30.37866211 73.86743164 C-34.3106749 75.54636096 -36.60100019 76 -41 76 C-41 61.15 -41 46.3 -41 31 C-35.06 28.69 -29.12 26.38 -23 24 C-19.10551693 21.72500494 -15.57493679 19.64878736 -12 17 C-11.14535156 16.37609375 -10.29070312 15.7521875 -9.41015625 15.109375 C-6.87111016 12.88719528 -5.42152282 10.85386744 -3.75 7.9375 C-3.24984375 7.08027344 -2.7496875 6.22304688 -2.234375 5.33984375 C-0.89351005 2.9521304 -0.89351005 2.9521304 0 0 Z " fill="#2A92FA" transform="translate(179,373)"/>
<path d="M0 0 C2.8021829 1.62707394 2.96031792 2.85348155 3.8125 6 C4 9 4 9 2 12 C3.0169117 12.00546844 3.0169117 12.00546844 4.05436707 12.01104736 C11.11121893 12.05286137 18.16741975 12.12219995 25.22387695 12.20751953 C27.85727425 12.23574319 30.49075649 12.2569507 33.12426758 12.27099609 C36.91011077 12.2924052 40.69493121 12.33904865 44.48046875 12.390625 C45.65772018 12.39185364 46.83497162 12.39308228 48.04789734 12.39434814 C56.17895889 12.54000463 56.17895889 12.54000463 60.24731445 14.81933594 C62 17 62 17 62.5625 20.5 C61.90804771 24.57214755 61.18680034 25.50046142 58 28 C55.39300537 28.51898193 55.39300537 28.51898193 52.40527344 28.54589844 C51.28441345 28.56561707 50.16355347 28.58533569 49.00872803 28.60565186 C47.80444153 28.60688049 46.60015503 28.60810913 45.359375 28.609375 C44.12205627 28.62591125 42.88473755 28.64244751 41.60992432 28.65948486 C38.32848469 28.69982385 35.0475037 28.72314761 31.76586914 28.73822021 C28.41404159 28.75780671 25.06258686 28.80010897 21.7109375 28.83984375 C15.14069517 28.91384629 8.57056166 28.9654191 2 29 C2.33257812 29.59683594 2.66515625 30.19367188 3.0078125 30.80859375 C4.4152343 33.91711198 3.96145011 35.77227465 3 39 C0.89224051 41.34195499 -0.48430447 41.90765998 -3.57421875 42.4609375 C-8.76120967 41.76302994 -12.03066183 38.86917769 -16.125 35.75 C-16.92292969 35.16347656 -17.72085938 34.57695312 -18.54296875 33.97265625 C-28.51689846 26.56297558 -28.51689846 26.56297558 -30.0625 21.5625 C-30 18 -30 18 -28.015625 15.703125 C-24.39595701 12.34350711 -20.56288659 9.24486303 -16.6875 6.1875 C-15.96626953 5.59001953 -15.24503906 4.99253906 -14.50195312 4.37695312 C-9.44788102 0.41075304 -6.43027952 -0.82133483 0 0 Z " fill="#F9AC00" transform="translate(80,224)"/>
<path d="M0 0 C5.04630578 1.27858036 9.0503727 5.22281187 13.03051758 8.42114258 C14.47297852 9.54069336 14.47297852 9.54069336 15.94458008 10.68286133 C23.86331833 16.89034682 23.86331833 16.89034682 24.71801758 21.73364258 C24.00591902 26.56008834 22.57163593 27.65541648 18.83911133 30.56958008 C17.51073242 31.54797852 17.51073242 31.54797852 16.15551758 32.54614258 C15.02072704 33.43329946 13.88665942 34.32138152 12.75317383 35.21020508 C11.53505638 36.13723188 10.31499581 37.0617109 9.09301758 37.98364258 C8.51600098 38.43328369 7.93898438 38.8829248 7.34448242 39.34619141 C3.16812296 42.39478005 0.27708297 43.15526079 -4.84448242 42.54614258 C-7.28198242 40.98364258 -7.28198242 40.98364258 -8.84448242 38.54614258 C-9.15698242 34.85864258 -9.15698242 34.85864258 -8.84448242 31.54614258 C-8.34948242 31.05114258 -8.34948242 31.05114258 -7.84448242 30.54614258 C-8.4973674 30.53805573 -9.15025238 30.52996887 -9.82292175 30.52163696 C-16.62010123 30.43555884 -23.41699018 30.33605342 -30.21386719 30.22875977 C-32.75027588 30.19048414 -35.28673858 30.15562882 -37.82324219 30.12426758 C-41.46984153 30.07858694 -45.11606944 30.02059628 -48.76245117 29.96020508 C-49.89595505 29.94865387 -51.02945892 29.93710266 -52.1973114 29.92520142 C-53.2580336 29.90533173 -54.3187558 29.88546204 -55.41162109 29.86499023 C-56.34205734 29.85166656 -57.27249359 29.8383429 -58.23112488 29.82461548 C-61.12915371 29.51580871 -63.25046144 28.87135704 -65.84448242 27.54614258 C-68.17197587 24.05490241 -68.34747558 22.65392007 -67.84448242 18.54614258 C-65.76830258 15.86098848 -64.5655274 14.6876228 -61.19952393 14.02716064 C-60.1958075 14.0182782 -59.19209106 14.00939575 -58.15795898 14.00024414 C-57.01707825 13.98052551 -55.87619751 13.96080688 -54.70074463 13.94049072 C-53.47458435 13.93926208 -52.24842407 13.93803345 -50.98510742 13.93676758 C-49.72559265 13.92023132 -48.46607788 13.90369507 -47.168396 13.88665771 C-43.82765569 13.84631424 -40.48767818 13.82299434 -37.14678955 13.80792236 C-33.73466499 13.78833753 -30.32282327 13.74636926 -26.91088867 13.70629883 C-20.22215553 13.63229211 -13.53352929 13.58072166 -6.84448242 13.54614258 C-7.50448242 12.88614258 -8.16448242 12.22614258 -8.84448242 11.54614258 C-9.27282327 7.69107496 -9.40345444 5.41813892 -7.28198242 2.10864258 C-4.74362092 0.48148777 -3.01501478 -0.07039098 0 0 Z " fill="#2CD62C" transform="translate(117.844482421875,177.453857421875)"/>
<path d="M0 0 C4.62 0 9.24 0 14 0 C14.17364448 6.68931961 14.30035437 13.37731452 14.38452148 20.06835938 C14.41962297 22.34202948 14.46731746 24.61554271 14.52807617 26.88867188 C14.61344687 30.16575893 14.65279243 33.44075 14.68359375 36.71875 C14.71972275 37.72740112 14.75585175 38.73605225 14.79307556 39.77526855 C14.79603003 45.14193436 14.2878886 48.31184 10.72802734 52.44799805 C9.51032706 53.65767017 8.26979595 54.84513253 7 56 C6.23324951 56.75708252 5.46649902 57.51416504 4.67651367 58.29418945 C4.01369385 58.89448975 3.35087402 59.49479004 2.66796875 60.11328125 C1.93255859 60.80486328 1.19714844 61.49644531 0.43945312 62.20898438 C-1.06651868 63.61569004 -2.58761563 65.00636936 -4.12304688 66.38085938 C-9.12812769 71.15582153 -10.97552882 74.67422581 -11.6184082 81.60009766 C-12.20390167 85.28237583 -14.08227526 86.84644126 -17 89 C-21.28174394 91.46310631 -25.15084445 91.94697314 -30 91 C-34.20787189 88.55467068 -37.13860028 85.51301631 -39 81 C-39.4850824 75.76111007 -38.85631117 72.43220699 -36 68 C-32.99150399 64.72604846 -30.93083828 63.85200848 -26.625 63.625 C-25.91601562 63.63789063 -25.20703125 63.65078125 -24.4765625 63.6640625 C-21.78426903 62.94215416 -20.85175393 62.15993905 -18.8046875 60.33203125 C-16.36282568 58.17344086 -13.88351067 56.12709559 -11.30224609 54.13818359 C-5.70421762 49.53094008 -1.02429685 45.2364475 0.22167969 37.83691406 C0.75810312 32.09053347 0.58680502 26.3838068 0.375 20.625 C0.35294392 18.61724785 0.33727239 16.60941496 0.328125 14.6015625 C0.2922425 9.73032009 0.17038154 4.86831759 0 0 Z " fill="#919DD0" transform="translate(311,202)"/>
<path d="M0 0 C4.62 0 9.24 0 14 0 C13.93079346 1.20309814 13.86158691 2.40619629 13.7902832 3.64575195 C11.41410319 29.81264619 11.41410319 29.81264619 21.37768555 52.72143555 C27.72651676 58.52772477 33.04407776 62.53928708 41.76953125 63.51342773 C45.68815024 64.36826657 48.39001479 67.06276893 51 70 C53.21067859 74.42135718 52.39783093 79.75970356 50.9375 84.3125 C47.95032937 88.45599474 44.70107373 90.44642305 39.7890625 91.453125 C35.31057065 91.78939401 32.58671788 91.14799339 29.0625 88.3125 C26.46850019 85.74251871 24.79785121 83.63465551 24 80 C24.09667969 78.87899902 24.19335938 77.75799805 24.29296875 76.60302734 C24.38212474 72.90808034 24.38212474 72.90808034 21.796875 70.77978516 C20.79140625 70.12284668 19.7859375 69.4659082 18.75 68.7890625 C10.66281776 62.88174541 1.78901038 56.3763301 -0.68701172 46.1673584 C-2.90084774 30.9932071 -1.40580835 15.19714877 0 0 Z " fill="#919DD1" transform="translate(335,202)"/>
<path d="M0 0 C4.62 0 9.24 0 14 0 C14.04597306 4.34190033 14.0857788 8.68295234 14.10986328 13.02490234 C14.11990591 14.50116847 14.13354265 15.97741479 14.15087891 17.45361328 C14.17520421 19.57850034 14.1865004 21.70312385 14.1953125 23.828125 C14.20578613 25.1059082 14.21625977 26.38369141 14.22705078 27.70019531 C14.01434847 30.79146893 13.73915628 32.47711687 12 35 C8.76656849 36.61671576 5.22060004 36.13609276 1.66796875 36.140625 C-0.03451857 36.15895456 -1.7369929 36.17852501 -3.43945312 36.19921875 C-6.12562937 36.2281789 -8.81097199 36.24999972 -11.49731445 36.25048828 C-14.08880711 36.25382691 -16.67837354 36.28840031 -19.26953125 36.328125 C-20.06865433 36.3210553 -20.8677774 36.3139856 -21.69111633 36.30670166 C-25.97857069 36.40004974 -27.49434502 36.56133664 -30.8581543 39.47949219 C-31.56496338 40.31125977 -32.27177246 41.14302734 -33 42 C-38.40115361 43.80038454 -43.2171082 43.85842938 -48.375 41.375 C-52.36967893 37.76076668 -54.1206612 34.35559774 -54.4375 29 C-54.2674846 24.76580697 -52.72839737 22.25891908 -50 19 C-46.04581213 15.40528375 -42.86752097 15.50853559 -37.703125 15.6328125 C-33.43635551 16.21240258 -31.034613 17.965387 -28 21 C-25.9291528 21.1584265 -23.85321971 21.25124422 -21.77734375 21.31640625 C-20.51728516 21.35830078 -19.25722656 21.40019531 -17.95898438 21.44335938 C-16.61849264 21.48317596 -15.2779978 21.52288814 -13.9375 21.5625 C-12.59308477 21.60568042 -11.2486834 21.64929456 -9.90429688 21.69335938 C-6.60299987 21.79985283 -3.30151421 21.9004675 0 22 C0 14.74 0 7.48 0 0 Z " fill="#929DD1" transform="translate(287,202)"/>
<path d="M0 0 C4.62 0 9.24 0 14 0 C14 7.26 14 14.52 14 22 C18.58475272 21.94014683 23.16619321 21.85315808 27.75 21.75 C29.70292969 21.72873047 29.70292969 21.72873047 31.6953125 21.70703125 C33.57089844 21.65869141 33.57089844 21.65869141 35.484375 21.609375 C36.63647461 21.58842773 37.78857422 21.56748047 38.97558594 21.54589844 C42.58897468 20.89369169 43.66745273 19.74893149 46 17 C49.99530807 15.00234597 54.66846361 15.35056745 59 16 C62.49029792 17.97277708 65.19844633 20.39689265 67 24 C67.54317573 28.9509132 67.52241949 32.89488185 65.375 37.4375 C61.5847396 41.52699148 58.07526226 43.14060493 52.5625 43.5625 C48.81236038 43.42220827 47.3334724 42.70737953 44.77050781 40.00634766 C40.68901356 36.32004396 37.44999122 36.18882308 32.109375 36.3359375 C31.28294495 36.33171783 30.45651489 36.32749817 29.6050415 36.32315063 C26.98576041 36.31234456 24.36904353 36.34027235 21.75 36.375 C19.11703017 36.39904978 16.48518524 36.41424845 13.85211182 36.40542603 C12.21935478 36.4008485 10.58640305 36.41557041 8.95404053 36.45175171 C3.57596735 36.44918296 3.57596735 36.44918296 0.99584961 34.43701172 C-0.38451829 31.05901898 -0.33637735 28.25569729 -0.29296875 24.609375 C-0.28872391 23.90476135 -0.28447906 23.20014771 -0.28010559 22.47418213 C-0.26336538 20.23239288 -0.22572404 17.99151569 -0.1875 15.75 C-0.17244704 14.22657552 -0.1587597 12.70313689 -0.14648438 11.1796875 C-0.11603345 7.45249432 -0.05730986 3.72726321 0 0 Z " fill="#929DD1" transform="translate(359,202)"/>
<path d="M0 0 C1.75 2.375 1.75 2.375 2.3125 5.375 C1.61295503 9.10590649 0.73110609 10.06440159 -2.25 12.375 C-5.60546875 13.02734375 -5.60546875 13.02734375 -9.4375 13.3125 C-19.52616106 14.36084612 -25.88851856 17.88507055 -32.46484375 25.625 C-35.26450717 29.93782942 -36.68459744 34.54782249 -38.14453125 39.43359375 C-39.25 42.375 -39.25 42.375 -42.25 44.375 C-45.1875 44.8125 -45.1875 44.8125 -48.25 44.375 C-50.6875 42.3125 -50.6875 42.3125 -52.25 39.375 C-52.1875 36.125 -52.1875 36.125 -51.25 32.375 C-51.08371094 31.68277344 -50.91742188 30.99054687 -50.74609375 30.27734375 C-47.60779529 19.08605302 -39.57251051 9.78196268 -29.69921875 3.83984375 C-20.7735214 -0.80585305 -9.61577218 -4.80788609 0 0 Z " fill="#EFF2FF" transform="translate(307.25,31.625)"/>
<path d="M0 0 C3.31015748 2.12047332 6.22464779 4.44929557 8 8 C8.584169 13.61700962 8.39438651 18.29165743 5 23 C0.53269136 26.39515457 -3.14374084 27.77990427 -8.78515625 27.51953125 C-13.72774386 26.36015885 -16.82336144 22.81398444 -19.5 18.6875 C-20.4783301 13.42897573 -20.03276385 8.7595236 -17.3125 4.125 C-11.93903122 -0.81278212 -6.96240467 -2.2202469 0 0 Z " fill="#FD8749" transform="translate(379,266)"/>
<path d="M0 0 C3.30417555 1.7984753 5.47939286 4.10076949 7.375 7.375 C8.5359313 12.25091148 8.65957262 16.23796907 6.375 20.75 C4.13455146 24.2238662 1.99979578 25.71704664 -2 27 C-6.05873532 27.72583223 -9.42332118 27.92271545 -13.0625 25.79296875 C-16.22283479 23.19227658 -18.42463176 20.81952488 -20 17 C-20.4850824 11.76111007 -19.85631117 8.43220699 -17 4 C-11.54060938 -1.04993633 -7.06541004 -1.760324 0 0 Z " fill="#FE874A" transform="translate(292,266)"/>
<path d="M0 0 C4.4331235 2.13739883 7.12530646 4.4174158 9 9 C9.7205356 15.38188672 8.84405165 18.84087804 5 24 C0.34023137 27.35936808 -4.42643385 27.88897381 -10 27 C-13.74526566 25.19672394 -15.54125416 23.67282723 -17.875 20.25 C-19.2361704 16.31772995 -19.74677599 13.11137112 -19 9 C-14.44356379 0.37531717 -9.33096617 -1.21708254 0 0 Z " fill="#FE884A" transform="translate(252,218)"/>
<path d="M0 0 C3.48488515 1.99223329 6.19540905 4.3908181 8 8 C8.54317573 12.9509132 8.52241949 16.89488185 6.375 21.4375 C2.5847396 25.52699148 -0.92473774 27.14060493 -6.4375 27.5625 C-10.99021342 27.40869211 -13.43921084 25.80383655 -16.62109375 22.63671875 C-19.57220835 19.13383768 -20.18959696 16.47488391 -19.8125 12 C-19.05297714 7.36429149 -17.51177939 4.37005008 -14 1.1875 C-9.3269877 -0.66223404 -4.94296932 -0.89679586 0 0 Z " fill="#FD8749" transform="translate(418,218)"/>
<path d="M0 0 C6.50509529 -0.36821294 6.50509529 -0.36821294 8.70665932 1.26976776 C10.99464328 4.3306346 10.41433443 8.15198277 10.38818359 11.83007812 C10.39344055 12.73277939 10.39869751 13.63548065 10.40411377 14.5655365 C10.41733515 17.55428284 10.40856807 20.54249809 10.3984375 23.53125 C10.40045762 25.60485944 10.40336854 27.67846819 10.40713501 29.7520752 C10.41156126 34.09992226 10.40511754 38.44758455 10.39111328 42.79541016 C10.37402132 48.37440956 10.38386088 53.95297602 10.40183067 59.53195953 C10.41266032 63.8144254 10.40922592 68.09678827 10.4014473 72.3792572 C10.39944302 74.43660025 10.40191249 76.49395259 10.40888596 78.55128479 C10.41648689 81.42441657 10.40491522 84.29684278 10.38818359 87.16992188 C10.39729263 88.45110146 10.39729263 88.45110146 10.40658569 89.75816345 C10.34406683 95.53970711 10.34406683 95.53970711 8.70665932 97.73023224 C5.97838198 99.76009173 3.27919003 99.18561453 0 99 C0.48699371 98.5203479 0.97398743 98.0406958 1.47573853 97.54650879 C3.66218304 93.89372332 3.41842891 90.39096568 3.38818359 86.25585938 C3.39344055 85.37412552 3.39869751 84.49239166 3.40411377 83.5839386 C3.41731377 80.67036202 3.40857564 77.75733211 3.3984375 74.84375 C3.40045823 72.8188059 3.40336967 70.79386251 3.40713501 68.7689209 C3.41155837 64.52540151 3.40512686 60.28207158 3.39111328 56.03857422 C3.37402148 50.59758168 3.38386259 45.15703308 3.40183067 39.71605682 C3.41266814 35.53477632 3.40922232 31.35360117 3.4014473 27.1723175 C3.39944519 25.16604052 3.40190492 23.15975399 3.40888596 21.15348816 C3.41649973 18.35011435 3.40489718 15.54746076 3.38818359 12.74414062 C3.39425629 11.9138887 3.40032898 11.08363678 3.40658569 10.22822571 C3.35875804 5.90081991 3.16480529 3.11709466 0 0 Z " fill="#F1671F" transform="translate(369,103)"/>
<path d="M0 0 C3.88689109 0.30848342 6.7701289 1.12977125 10.390625 2.453125 C14.33297629 3.78336623 18.3782204 4.64967434 22.43359375 5.56640625 C24.9375 6.3125 24.9375 6.3125 26.9375 8.3125 C27.35296714 12.05170426 27.38872287 14.45302788 25.625 17.8125 C19.4222457 21.2745024 11.52020737 18.35101373 5.0625 16.5625 C-3.37285647 13.7607566 -3.37285647 13.7607566 -6.0625 9.3125 C-5.97420898 4.10332962 -5.74428943 0.58615198 0 0 Z " fill="#2B93FA" transform="translate(44.0625,370.6875)"/>
<path d="M0 0 C3.33995159 0.81923341 6.60917474 1.82401645 9.8828125 2.875 C12.48989919 3.69044769 12.48989919 3.69044769 16.15234375 3.99609375 C19.27734375 4.55859375 19.27734375 4.55859375 21.71484375 6.18359375 C23.88586552 9.48354684 23.76982377 11.68910787 23.27734375 15.55859375 C22.27734375 17.49609375 22.27734375 17.49609375 20.27734375 18.55859375 C11.242483 19.774825 -0.27146911 16.67373303 -7.72265625 11.55859375 C-9.72265625 9.55859375 -9.72265625 9.55859375 -10.09765625 6.68359375 C-9.72265625 3.55859375 -9.72265625 3.55859375 -8.22265625 1.12109375 C-5.23372005 -0.74699137 -3.41845643 -0.61748654 0 0 Z " fill="#2B93FA" transform="translate(47.72265625,462.44140625)"/>
<path d="M0 0 C3.29327023 1.01185633 6.56125499 2.08603258 9.83203125 3.16796875 C11.2252347 3.55262425 12.62051002 3.93004274 14.01953125 4.29296875 C16.83203125 5.16796875 16.83203125 5.16796875 18.83203125 7.16796875 C19.25515561 10.97608797 19.32423288 13.31196592 17.39453125 16.66796875 C11.99081881 19.83111749 5.41471554 17.13337181 -0.35546875 15.79296875 C-10.93559613 13.01652768 -10.93559613 13.01652768 -14.16796875 8.16796875 C-14.48630608 5.11193037 -14.63018092 3.03461656 -13.16796875 0.29296875 C-8.86262976 -2.12878443 -4.55332059 -1.19587828 0 0 Z " fill="#014EBE" transform="translate(52.16796875,417.83203125)"/>
<path d="M0 0 C3.96 0 7.92 0 12 0 C12 10.89 12 21.78 12 33 C8.04 33 4.08 33 0 33 C0 22.11 0 11.22 0 0 Z " fill="#4A5687" transform="translate(356,379)"/>
<path d="M0 0 C19.402596 -0.93132461 19.402596 -0.93132461 26.87109375 5.6484375 C32.99193753 12.37109086 33.21307672 18.15731599 33 27 C28.71 27 24.42 27 20 27 C19.773125 25.185 19.54625 23.37 19.3125 21.5 C18.17264805 14.82597031 16.43621074 9.78235687 11.0703125 5.4375 C7.52453294 3.08256716 4.30979567 1.40404334 0 1 C0 0.67 0 0.34 0 0 Z " fill="#7986BE" transform="translate(374,411)"/>
<path d="M0 0 C1.65 0 3.3 0 5 0 C5 20.13 5 40.26 5 61 C3.35 61 1.7 61 0 61 C0 40.87 0 20.74 0 0 Z " fill="#F2671F" transform="translate(294,122)"/>
<path d="M0 0 C6.35320957 0.41995792 9.94135324 2.3343318 14.1796875 7.08984375 C16.39036609 11.51120093 15.57751843 16.84954731 14.1171875 21.40234375 C11.63677675 24.84291351 9.17621197 26.67356013 5.1796875 28.08984375 C1.2421875 28.33984375 1.2421875 28.33984375 -1.8203125 28.08984375 C-1.8203125 27.42984375 -1.8203125 26.76984375 -1.8203125 26.08984375 C-0.17028422 24.73597439 1.4971262 23.40306233 3.1796875 22.08984375 C5.27507346 17.89907184 4.7388081 12.64181473 4.1796875 8.08984375 C2.01169542 4.91702523 2.01169542 4.91702523 -0.8203125 3.08984375 C-1.4803125 2.42984375 -2.1403125 1.76984375 -2.8203125 1.08984375 C-1.8203125 0.08984375 -1.8203125 0.08984375 0 0 Z " fill="#F16B26" transform="translate(371.8203125,264.91015625)"/>
<path d="M0 0 C6.02728657 0.46441404 8.99505137 1.60158714 13.14453125 6.0546875 C15.43406256 10.00933248 15.61136765 13.5419356 15.14453125 18.0546875 C13.67161549 22.12194352 11.9056151 24.53038529 8.33203125 26.9921875 C4.76206105 28.18217757 1.88361838 28.27903273 -1.85546875 28.0546875 C-1.85546875 27.3946875 -1.85546875 26.7346875 -1.85546875 26.0546875 C-1.05109375 25.4153125 -0.24671875 24.7759375 0.58203125 24.1171875 C3.38173857 22.24432818 3.38173857 22.24432818 4.14453125 19.0546875 C4.54812761 14.47542111 4.71049433 10.38470073 2.89453125 6.1171875 C1.13792072 4.04689651 -0.58809172 2.54021038 -2.85546875 1.0546875 C-1.85546875 0.0546875 -1.85546875 0.0546875 0 0 Z " fill="#F16A25" transform="translate(284.85546875,264.9453125)"/>
<path d="M0 0 C4.71190102 -0.37695208 8.07370593 -0.46314703 12.375 1.6875 C16.43556246 5.26466217 17.82399256 7.44107699 18.4375 12.875 C18.23457475 17.54228067 16.78671773 20.25993146 14 24 C9.63565714 27.0065473 6.23080226 27.31384814 1 27 C1 25 1 25 3.4375 22.5 C4.283125 21.675 5.12875 20.85 6 20 C7.86211974 16.27576052 7.57212448 12.05462129 7 8 C5.60846237 5.44538614 4.14926523 4.04691926 2 2 C1.34 1.34 0.68 0.68 0 0 Z " fill="#F16923" transform="translate(243,218)"/>
<path d="M0 0 C4.02642005 -0.49303103 7.5420642 -0.86992855 11.12109375 1.265625 C16.79428889 6.12499381 16.79428889 6.12499381 17.23828125 10.171875 C17.40509346 15.96640433 17.1221505 19.55241656 13 24 C8.59229224 26.93847184 5.24009642 27.31440578 0 27 C0.63228516 26.27296875 0.63228516 26.27296875 1.27734375 25.53125 C5.29568121 20.61469593 7.10177804 17.41201624 7 11 C5.5110003 6.2978957 3.7366235 3.22122716 0 0 Z " fill="#F16923" transform="translate(409,218)"/>
</svg>
